<mxfile host="app.diagrams.net" modified="2023-10-30T09:58:04.791Z" agent="Mozilla/5.0 (Macintosh; Intel Mac OS X 10_15_7) AppleWebKit/537.36 (KHTML, like Gecko) Chrome/116.0.0.0 Safari/537.36" etag="TFW34pl8Kh2JYqfuAaTf" version="22.0.8" type="github">
  <diagram name="第 1 页" id="Imp0usc3wWshR_QT694W">
    <mxGraphModel dx="2261" dy="760" grid="1" gridSize="10" guides="1" tooltips="1" connect="1" arrows="1" fold="1" page="1" pageScale="1" pageWidth="827" pageHeight="1169" math="0" shadow="0">
      <root>
        <mxCell id="0" />
        <mxCell id="1" parent="0" />
        <mxCell id="HRvxDB4I8MCEPSmdqRKO-88" style="edgeStyle=orthogonalEdgeStyle;rounded=0;orthogonalLoop=1;jettySize=auto;html=1;exitX=0.5;exitY=1;exitDx=0;exitDy=0;" edge="1" parent="1" source="HRvxDB4I8MCEPSmdqRKO-1" target="HRvxDB4I8MCEPSmdqRKO-47">
          <mxGeometry relative="1" as="geometry" />
        </mxCell>
        <mxCell id="HRvxDB4I8MCEPSmdqRKO-1" value="开始" style="rounded=1;whiteSpace=wrap;html=1;" vertex="1" parent="1">
          <mxGeometry x="-311" y="200" width="120" height="60" as="geometry" />
        </mxCell>
        <mxCell id="HRvxDB4I8MCEPSmdqRKO-22" style="edgeStyle=orthogonalEdgeStyle;rounded=0;orthogonalLoop=1;jettySize=auto;html=1;exitX=0.75;exitY=1;exitDx=0;exitDy=0;entryX=0.75;entryY=0;entryDx=0;entryDy=0;" edge="1" parent="1" source="HRvxDB4I8MCEPSmdqRKO-3" target="HRvxDB4I8MCEPSmdqRKO-4">
          <mxGeometry relative="1" as="geometry" />
        </mxCell>
        <mxCell id="HRvxDB4I8MCEPSmdqRKO-26" style="edgeStyle=orthogonalEdgeStyle;rounded=0;orthogonalLoop=1;jettySize=auto;html=1;exitX=0.25;exitY=1;exitDx=0;exitDy=0;entryX=0.25;entryY=0;entryDx=0;entryDy=0;" edge="1" parent="1" source="HRvxDB4I8MCEPSmdqRKO-3" target="HRvxDB4I8MCEPSmdqRKO-4">
          <mxGeometry relative="1" as="geometry" />
        </mxCell>
        <mxCell id="HRvxDB4I8MCEPSmdqRKO-3" value="crm后台" style="rounded=0;whiteSpace=wrap;html=1;" vertex="1" parent="1">
          <mxGeometry x="920" y="180" width="370" height="60" as="geometry" />
        </mxCell>
        <mxCell id="HRvxDB4I8MCEPSmdqRKO-21" style="edgeStyle=orthogonalEdgeStyle;rounded=0;orthogonalLoop=1;jettySize=auto;html=1;exitX=0.25;exitY=1;exitDx=0;exitDy=0;entryX=0.25;entryY=0;entryDx=0;entryDy=0;" edge="1" parent="1" source="HRvxDB4I8MCEPSmdqRKO-4" target="HRvxDB4I8MCEPSmdqRKO-5">
          <mxGeometry relative="1" as="geometry" />
        </mxCell>
        <mxCell id="HRvxDB4I8MCEPSmdqRKO-23" style="edgeStyle=orthogonalEdgeStyle;rounded=0;orthogonalLoop=1;jettySize=auto;html=1;exitX=0.75;exitY=1;exitDx=0;exitDy=0;entryX=0.75;entryY=0;entryDx=0;entryDy=0;" edge="1" parent="1" source="HRvxDB4I8MCEPSmdqRKO-4" target="HRvxDB4I8MCEPSmdqRKO-5">
          <mxGeometry relative="1" as="geometry" />
        </mxCell>
        <mxCell id="HRvxDB4I8MCEPSmdqRKO-4" value="crm后端服务" style="rounded=0;whiteSpace=wrap;html=1;" vertex="1" parent="1">
          <mxGeometry x="920" y="319" width="370" height="60" as="geometry" />
        </mxCell>
        <mxCell id="HRvxDB4I8MCEPSmdqRKO-5" value="login服务" style="rounded=0;whiteSpace=wrap;html=1;" vertex="1" parent="1">
          <mxGeometry x="920" y="454" width="370" height="60" as="geometry" />
        </mxCell>
        <mxCell id="HRvxDB4I8MCEPSmdqRKO-6" value="mq" style="rounded=0;whiteSpace=wrap;html=1;" vertex="1" parent="1">
          <mxGeometry x="1481" y="454" width="120" height="60" as="geometry" />
        </mxCell>
        <mxCell id="HRvxDB4I8MCEPSmdqRKO-17" style="edgeStyle=orthogonalEdgeStyle;rounded=0;orthogonalLoop=1;jettySize=auto;html=1;exitX=0.5;exitY=1;exitDx=0;exitDy=0;entryX=0;entryY=0.5;entryDx=0;entryDy=0;" edge="1" parent="1" source="HRvxDB4I8MCEPSmdqRKO-7" target="HRvxDB4I8MCEPSmdqRKO-5">
          <mxGeometry relative="1" as="geometry" />
        </mxCell>
        <mxCell id="HRvxDB4I8MCEPSmdqRKO-7" value="学生端" style="rounded=0;whiteSpace=wrap;html=1;" vertex="1" parent="1">
          <mxGeometry x="720" y="180" width="120" height="60" as="geometry" />
        </mxCell>
        <mxCell id="HRvxDB4I8MCEPSmdqRKO-18" value="1.1 学生注册/注销/绑定/换绑（单账号）" style="text;html=1;strokeColor=none;fillColor=none;align=left;verticalAlign=middle;whiteSpace=wrap;rounded=0;" vertex="1" parent="1">
          <mxGeometry x="650" y="295" width="220" height="51" as="geometry" />
        </mxCell>
        <mxCell id="HRvxDB4I8MCEPSmdqRKO-19" value="3.1 父子账号操作(crud)" style="text;html=1;strokeColor=none;fillColor=none;align=left;verticalAlign=middle;whiteSpace=wrap;rounded=0;" vertex="1" parent="1">
          <mxGeometry x="1160" y="270" width="140" height="30" as="geometry" />
        </mxCell>
        <mxCell id="HRvxDB4I8MCEPSmdqRKO-16" value="2.1 老师帮学生绑定/换绑（单账号）" style="text;html=1;strokeColor=none;fillColor=none;align=left;verticalAlign=middle;whiteSpace=wrap;rounded=0;" vertex="1" parent="1">
          <mxGeometry x="890" y="270" width="200" height="30" as="geometry" />
        </mxCell>
        <mxCell id="HRvxDB4I8MCEPSmdqRKO-32" value="2.2 父子账号删除操作" style="text;html=1;strokeColor=none;fillColor=none;align=center;verticalAlign=middle;whiteSpace=wrap;rounded=0;" vertex="1" parent="1">
          <mxGeometry x="940" y="420" width="200" height="30" as="geometry" />
        </mxCell>
        <mxCell id="HRvxDB4I8MCEPSmdqRKO-33" value="1.2 父账号添加、父子账号删除操作" style="text;html=1;strokeColor=none;fillColor=none;align=center;verticalAlign=middle;whiteSpace=wrap;rounded=0;" vertex="1" parent="1">
          <mxGeometry x="760" y="484" width="200" height="30" as="geometry" />
        </mxCell>
        <mxCell id="HRvxDB4I8MCEPSmdqRKO-34" value="3.2 父子账号数据库操作" style="text;html=1;strokeColor=none;fillColor=none;align=center;verticalAlign=middle;whiteSpace=wrap;rounded=0;" vertex="1" parent="1">
          <mxGeometry x="1130" y="420" width="200" height="30" as="geometry" />
        </mxCell>
        <mxCell id="HRvxDB4I8MCEPSmdqRKO-35" value="x.3 父子账号绑定/删除消息" style="text;html=1;strokeColor=none;fillColor=none;align=center;verticalAlign=middle;whiteSpace=wrap;rounded=0;" vertex="1" parent="1">
          <mxGeometry x="1290" y="454" width="200" height="30" as="geometry" />
        </mxCell>
        <mxCell id="HRvxDB4I8MCEPSmdqRKO-37" value="" style="edgeStyle=orthogonalEdgeStyle;rounded=0;orthogonalLoop=1;jettySize=auto;html=1;exitX=1;exitY=0.5;exitDx=0;exitDy=0;entryX=0;entryY=0.5;entryDx=0;entryDy=0;" edge="1" parent="1" source="HRvxDB4I8MCEPSmdqRKO-5" target="HRvxDB4I8MCEPSmdqRKO-6">
          <mxGeometry relative="1" as="geometry">
            <mxPoint x="1290" y="484" as="sourcePoint" />
            <mxPoint x="1310" y="484" as="targetPoint" />
          </mxGeometry>
        </mxCell>
        <mxCell id="HRvxDB4I8MCEPSmdqRKO-40" style="edgeStyle=orthogonalEdgeStyle;rounded=0;orthogonalLoop=1;jettySize=auto;html=1;exitX=0.5;exitY=1;exitDx=0;exitDy=0;" edge="1" parent="1" source="HRvxDB4I8MCEPSmdqRKO-39" target="HRvxDB4I8MCEPSmdqRKO-6">
          <mxGeometry relative="1" as="geometry" />
        </mxCell>
        <mxCell id="HRvxDB4I8MCEPSmdqRKO-39" value="市场等业务方" style="rounded=0;whiteSpace=wrap;html=1;" vertex="1" parent="1">
          <mxGeometry x="1481" y="170" width="120" height="60" as="geometry" />
        </mxCell>
        <mxCell id="HRvxDB4I8MCEPSmdqRKO-41" value="x.4.获取父子账号变动&lt;br&gt;业务处理" style="text;html=1;strokeColor=none;fillColor=none;align=center;verticalAlign=middle;whiteSpace=wrap;rounded=0;" vertex="1" parent="1">
          <mxGeometry x="1456" y="295" width="170" height="30" as="geometry" />
        </mxCell>
        <mxCell id="HRvxDB4I8MCEPSmdqRKO-44" value="" style="rounded=0;whiteSpace=wrap;html=1;" vertex="1" parent="1">
          <mxGeometry x="230" y="319" width="120" height="60" as="geometry" />
        </mxCell>
        <mxCell id="HRvxDB4I8MCEPSmdqRKO-46" value="开始" style="rounded=1;whiteSpace=wrap;html=1;" vertex="1" parent="1">
          <mxGeometry x="230" y="200" width="120" height="60" as="geometry" />
        </mxCell>
        <mxCell id="HRvxDB4I8MCEPSmdqRKO-66" style="edgeStyle=orthogonalEdgeStyle;rounded=0;orthogonalLoop=1;jettySize=auto;html=1;entryX=0.5;entryY=0;entryDx=0;entryDy=0;" edge="1" parent="1" source="HRvxDB4I8MCEPSmdqRKO-47" target="HRvxDB4I8MCEPSmdqRKO-49">
          <mxGeometry relative="1" as="geometry" />
        </mxCell>
        <mxCell id="HRvxDB4I8MCEPSmdqRKO-67" value="新增用户" style="edgeLabel;html=1;align=center;verticalAlign=middle;resizable=0;points=[];" vertex="1" connectable="0" parent="HRvxDB4I8MCEPSmdqRKO-66">
          <mxGeometry x="0.168" y="4" relative="1" as="geometry">
            <mxPoint as="offset" />
          </mxGeometry>
        </mxCell>
        <mxCell id="HRvxDB4I8MCEPSmdqRKO-69" style="edgeStyle=orthogonalEdgeStyle;rounded=0;orthogonalLoop=1;jettySize=auto;html=1;exitX=1;exitY=0.5;exitDx=0;exitDy=0;" edge="1" parent="1" source="HRvxDB4I8MCEPSmdqRKO-47" target="HRvxDB4I8MCEPSmdqRKO-61">
          <mxGeometry relative="1" as="geometry" />
        </mxCell>
        <mxCell id="HRvxDB4I8MCEPSmdqRKO-70" value="删除用户" style="edgeLabel;html=1;align=center;verticalAlign=middle;resizable=0;points=[];" vertex="1" connectable="0" parent="HRvxDB4I8MCEPSmdqRKO-69">
          <mxGeometry x="-0.6026" y="-1" relative="1" as="geometry">
            <mxPoint as="offset" />
          </mxGeometry>
        </mxCell>
        <mxCell id="HRvxDB4I8MCEPSmdqRKO-47" value="user_auth表有变动" style="rhombus;whiteSpace=wrap;html=1;" vertex="1" parent="1">
          <mxGeometry x="-326" y="290" width="150" height="80" as="geometry" />
        </mxCell>
        <mxCell id="HRvxDB4I8MCEPSmdqRKO-50" value="" style="edgeStyle=orthogonalEdgeStyle;rounded=0;orthogonalLoop=1;jettySize=auto;html=1;entryX=0.5;entryY=0;entryDx=0;entryDy=0;" edge="1" parent="1" source="HRvxDB4I8MCEPSmdqRKO-49" target="HRvxDB4I8MCEPSmdqRKO-95">
          <mxGeometry relative="1" as="geometry">
            <mxPoint x="-567" y="527" as="targetPoint" />
          </mxGeometry>
        </mxCell>
        <mxCell id="HRvxDB4I8MCEPSmdqRKO-132" value="否" style="edgeLabel;html=1;align=center;verticalAlign=middle;resizable=0;points=[];" vertex="1" connectable="0" parent="HRvxDB4I8MCEPSmdqRKO-50">
          <mxGeometry x="-0.0522" relative="1" as="geometry">
            <mxPoint y="1" as="offset" />
          </mxGeometry>
        </mxCell>
        <mxCell id="HRvxDB4I8MCEPSmdqRKO-138" style="edgeStyle=orthogonalEdgeStyle;rounded=0;orthogonalLoop=1;jettySize=auto;html=1;exitX=1;exitY=0.5;exitDx=0;exitDy=0;" edge="1" parent="1" source="HRvxDB4I8MCEPSmdqRKO-49" target="HRvxDB4I8MCEPSmdqRKO-130">
          <mxGeometry relative="1" as="geometry" />
        </mxCell>
        <mxCell id="HRvxDB4I8MCEPSmdqRKO-139" value="不应该出现是" style="edgeLabel;html=1;align=center;verticalAlign=middle;resizable=0;points=[];" vertex="1" connectable="0" parent="HRvxDB4I8MCEPSmdqRKO-138">
          <mxGeometry x="-0.1494" y="-1" relative="1" as="geometry">
            <mxPoint y="1" as="offset" />
          </mxGeometry>
        </mxCell>
        <mxCell id="HRvxDB4I8MCEPSmdqRKO-49" value="family_user表&lt;br style=&quot;border-color: var(--border-color);&quot;&gt;有记录" style="rhombus;whiteSpace=wrap;html=1;" vertex="1" parent="1">
          <mxGeometry x="-642" y="415" width="150" height="80" as="geometry" />
        </mxCell>
        <mxCell id="HRvxDB4I8MCEPSmdqRKO-55" value="&lt;div data-docx-has-block-data=&quot;false&quot; data-page-id=&quot;H2dkdbYHcoo3fOxrRf8cBjybnae&quot;&gt;&lt;div class=&quot;old-record-id-NEFbd2yO6o0nXTxlkc0cnwMOnpg&quot; style=&quot;&quot;&gt;&lt;div data-docx-has-block-data=&quot;false&quot; data-page-id=&quot;H2dkdbYHcoo3fOxrRf8cBjybnae&quot;&gt;&lt;div class=&quot;old-record-id-SlJNd7PGNow6A5x4QqhcfKrGn4g&quot; style=&quot;&quot;&gt;family_bind_history&lt;/div&gt;&lt;/div&gt;&lt;/div&gt;&lt;div class=&quot;old-record-id-NEFbd2yO6o0nXTxlkc0cnwMOnpg&quot; style=&quot;&quot;&gt;添加操作记录&lt;/div&gt;&lt;/div&gt;" style="rounded=0;whiteSpace=wrap;html=1;" vertex="1" parent="1">
          <mxGeometry x="-627" y="852" width="120" height="60" as="geometry" />
        </mxCell>
        <mxCell id="HRvxDB4I8MCEPSmdqRKO-57" style="edgeStyle=orthogonalEdgeStyle;rounded=0;orthogonalLoop=1;jettySize=auto;html=1;exitX=0.5;exitY=1;exitDx=0;exitDy=0;entryX=0.5;entryY=0;entryDx=0;entryDy=0;" edge="1" parent="1" target="HRvxDB4I8MCEPSmdqRKO-63">
          <mxGeometry relative="1" as="geometry">
            <mxPoint x="-31" y="686" as="sourcePoint" />
          </mxGeometry>
        </mxCell>
        <mxCell id="HRvxDB4I8MCEPSmdqRKO-58" value="family_user&lt;br&gt;删除用户" style="rounded=0;whiteSpace=wrap;html=1;" vertex="1" parent="1">
          <mxGeometry x="-91" y="572" width="120" height="60" as="geometry" />
        </mxCell>
        <mxCell id="HRvxDB4I8MCEPSmdqRKO-59" value="" style="edgeStyle=orthogonalEdgeStyle;rounded=0;orthogonalLoop=1;jettySize=auto;html=1;" edge="1" parent="1" source="HRvxDB4I8MCEPSmdqRKO-61" target="HRvxDB4I8MCEPSmdqRKO-58">
          <mxGeometry relative="1" as="geometry" />
        </mxCell>
        <mxCell id="HRvxDB4I8MCEPSmdqRKO-60" value="是" style="edgeLabel;html=1;align=center;verticalAlign=middle;resizable=0;points=[];" vertex="1" connectable="0" parent="HRvxDB4I8MCEPSmdqRKO-59">
          <mxGeometry x="-0.25" y="-2" relative="1" as="geometry">
            <mxPoint as="offset" />
          </mxGeometry>
        </mxCell>
        <mxCell id="HRvxDB4I8MCEPSmdqRKO-77" style="edgeStyle=orthogonalEdgeStyle;rounded=0;orthogonalLoop=1;jettySize=auto;html=1;exitX=0;exitY=0.5;exitDx=0;exitDy=0;entryX=0.75;entryY=0;entryDx=0;entryDy=0;" edge="1" parent="1" source="HRvxDB4I8MCEPSmdqRKO-61" target="HRvxDB4I8MCEPSmdqRKO-81">
          <mxGeometry relative="1" as="geometry">
            <mxPoint x="-186" y="540" as="targetPoint" />
          </mxGeometry>
        </mxCell>
        <mxCell id="HRvxDB4I8MCEPSmdqRKO-78" value="不应该出现否" style="edgeLabel;html=1;align=center;verticalAlign=middle;resizable=0;points=[];" vertex="1" connectable="0" parent="HRvxDB4I8MCEPSmdqRKO-77">
          <mxGeometry x="0.4394" y="-2" relative="1" as="geometry">
            <mxPoint x="72" y="-278" as="offset" />
          </mxGeometry>
        </mxCell>
        <mxCell id="HRvxDB4I8MCEPSmdqRKO-61" value="family_user表&lt;br&gt;有记录" style="rhombus;whiteSpace=wrap;html=1;" vertex="1" parent="1">
          <mxGeometry x="-106" y="444" width="150" height="80" as="geometry" />
        </mxCell>
        <mxCell id="HRvxDB4I8MCEPSmdqRKO-62" value="" style="edgeStyle=orthogonalEdgeStyle;rounded=0;orthogonalLoop=1;jettySize=auto;html=1;" edge="1" parent="1" source="HRvxDB4I8MCEPSmdqRKO-63" target="HRvxDB4I8MCEPSmdqRKO-65">
          <mxGeometry relative="1" as="geometry" />
        </mxCell>
        <mxCell id="HRvxDB4I8MCEPSmdqRKO-63" value="&lt;div data-docx-has-block-data=&quot;false&quot; data-page-id=&quot;H2dkdbYHcoo3fOxrRf8cBjybnae&quot;&gt;&lt;div class=&quot;old-record-id-NEFbd2yO6o0nXTxlkc0cnwMOnpg&quot; style=&quot;&quot;&gt;family&lt;/div&gt;&lt;div class=&quot;old-record-id-NEFbd2yO6o0nXTxlkc0cnwMOnpg&quot; style=&quot;&quot;&gt;删除此user_id&lt;/div&gt;&lt;/div&gt;" style="rounded=0;whiteSpace=wrap;html=1;" vertex="1" parent="1">
          <mxGeometry x="-91" y="734" width="120" height="60" as="geometry" />
        </mxCell>
        <mxCell id="HRvxDB4I8MCEPSmdqRKO-83" style="edgeStyle=orthogonalEdgeStyle;rounded=0;orthogonalLoop=1;jettySize=auto;html=1;exitX=0.5;exitY=1;exitDx=0;exitDy=0;entryX=0.75;entryY=0;entryDx=0;entryDy=0;" edge="1" parent="1" source="HRvxDB4I8MCEPSmdqRKO-65" target="HRvxDB4I8MCEPSmdqRKO-81">
          <mxGeometry relative="1" as="geometry" />
        </mxCell>
        <mxCell id="HRvxDB4I8MCEPSmdqRKO-65" value="&lt;div data-docx-has-block-data=&quot;false&quot; data-page-id=&quot;H2dkdbYHcoo3fOxrRf8cBjybnae&quot;&gt;&lt;div class=&quot;old-record-id-NEFbd2yO6o0nXTxlkc0cnwMOnpg&quot; style=&quot;&quot;&gt;&lt;div data-docx-has-block-data=&quot;false&quot; data-page-id=&quot;H2dkdbYHcoo3fOxrRf8cBjybnae&quot;&gt;&lt;div class=&quot;old-record-id-SlJNd7PGNow6A5x4QqhcfKrGn4g&quot; style=&quot;&quot;&gt;family_bind_history&lt;/div&gt;&lt;/div&gt;&lt;/div&gt;&lt;div class=&quot;old-record-id-NEFbd2yO6o0nXTxlkc0cnwMOnpg&quot; style=&quot;&quot;&gt;添加操作记录&lt;/div&gt;&lt;/div&gt;" style="rounded=0;whiteSpace=wrap;html=1;" vertex="1" parent="1">
          <mxGeometry x="-91" y="959" width="120" height="60" as="geometry" />
        </mxCell>
        <mxCell id="HRvxDB4I8MCEPSmdqRKO-81" value="结束" style="rounded=1;whiteSpace=wrap;html=1;" vertex="1" parent="1">
          <mxGeometry x="-296" y="1069" width="120" height="60" as="geometry" />
        </mxCell>
        <mxCell id="HRvxDB4I8MCEPSmdqRKO-98" style="edgeStyle=orthogonalEdgeStyle;rounded=0;orthogonalLoop=1;jettySize=auto;html=1;exitX=0.5;exitY=1;exitDx=0;exitDy=0;entryX=0.5;entryY=0;entryDx=0;entryDy=0;" edge="1" parent="1" source="HRvxDB4I8MCEPSmdqRKO-95" target="HRvxDB4I8MCEPSmdqRKO-96">
          <mxGeometry relative="1" as="geometry" />
        </mxCell>
        <mxCell id="HRvxDB4I8MCEPSmdqRKO-99" value="否" style="edgeLabel;html=1;align=center;verticalAlign=middle;resizable=0;points=[];" vertex="1" connectable="0" parent="HRvxDB4I8MCEPSmdqRKO-98">
          <mxGeometry x="-0.3824" y="-3" relative="1" as="geometry">
            <mxPoint y="1" as="offset" />
          </mxGeometry>
        </mxCell>
        <mxCell id="HRvxDB4I8MCEPSmdqRKO-102" style="edgeStyle=orthogonalEdgeStyle;rounded=0;orthogonalLoop=1;jettySize=auto;html=1;exitX=0;exitY=0.5;exitDx=0;exitDy=0;entryX=0;entryY=0.5;entryDx=0;entryDy=0;" edge="1" parent="1" source="HRvxDB4I8MCEPSmdqRKO-95" target="HRvxDB4I8MCEPSmdqRKO-119">
          <mxGeometry relative="1" as="geometry">
            <mxPoint x="-710" y="634" as="targetPoint" />
          </mxGeometry>
        </mxCell>
        <mxCell id="HRvxDB4I8MCEPSmdqRKO-103" value="不应该是" style="edgeLabel;html=1;align=center;verticalAlign=middle;resizable=0;points=[];" vertex="1" connectable="0" parent="HRvxDB4I8MCEPSmdqRKO-102">
          <mxGeometry x="-0.25" relative="1" as="geometry">
            <mxPoint as="offset" />
          </mxGeometry>
        </mxCell>
        <mxCell id="HRvxDB4I8MCEPSmdqRKO-95" value="family表&lt;br style=&quot;border-color: var(--border-color);&quot;&gt;有userId记录" style="rhombus;whiteSpace=wrap;html=1;" vertex="1" parent="1">
          <mxGeometry x="-642" y="532" width="150" height="68" as="geometry" />
        </mxCell>
        <mxCell id="HRvxDB4I8MCEPSmdqRKO-120" value="" style="edgeStyle=orthogonalEdgeStyle;rounded=0;orthogonalLoop=1;jettySize=auto;html=1;" edge="1" parent="1" source="HRvxDB4I8MCEPSmdqRKO-96" target="HRvxDB4I8MCEPSmdqRKO-119">
          <mxGeometry relative="1" as="geometry" />
        </mxCell>
        <mxCell id="HRvxDB4I8MCEPSmdqRKO-96" value="&lt;div style=&quot;border-color: var(--border-color);&quot; class=&quot;old-record-id-NEFbd2yO6o0nXTxlkc0cnwMOnpg&quot;&gt;family表&lt;/div&gt;&lt;div style=&quot;border-color: var(--border-color);&quot; class=&quot;old-record-id-NEFbd2yO6o0nXTxlkc0cnwMOnpg&quot;&gt;添加此user_id&lt;/div&gt;" style="rounded=0;whiteSpace=wrap;html=1;" vertex="1" parent="1">
          <mxGeometry x="-627" y="640" width="120" height="60" as="geometry" />
        </mxCell>
        <mxCell id="HRvxDB4I8MCEPSmdqRKO-106" value="是主账号" style="rhombus;whiteSpace=wrap;html=1;" vertex="1" parent="1">
          <mxGeometry x="240" y="505" width="150" height="80" as="geometry" />
        </mxCell>
        <mxCell id="HRvxDB4I8MCEPSmdqRKO-121" value="" style="edgeStyle=orthogonalEdgeStyle;rounded=0;orthogonalLoop=1;jettySize=auto;html=1;" edge="1" parent="1" source="HRvxDB4I8MCEPSmdqRKO-119" target="HRvxDB4I8MCEPSmdqRKO-55">
          <mxGeometry relative="1" as="geometry" />
        </mxCell>
        <mxCell id="HRvxDB4I8MCEPSmdqRKO-119" value="&lt;div style=&quot;border-color: var(--border-color);&quot; class=&quot;old-record-id-NEFbd2yO6o0nXTxlkc0cnwMOnpg&quot;&gt;family_user&lt;/div&gt;&lt;div style=&quot;border-color: var(--border-color);&quot; class=&quot;old-record-id-NEFbd2yO6o0nXTxlkc0cnwMOnpg&quot;&gt;添加此user_id&lt;/div&gt;" style="rounded=0;whiteSpace=wrap;html=1;" vertex="1" parent="1">
          <mxGeometry x="-627" y="753" width="120" height="55" as="geometry" />
        </mxCell>
        <mxCell id="HRvxDB4I8MCEPSmdqRKO-127" style="edgeStyle=orthogonalEdgeStyle;rounded=0;orthogonalLoop=1;jettySize=auto;html=1;exitX=0.5;exitY=1;exitDx=0;exitDy=0;entryX=0.5;entryY=0;entryDx=0;entryDy=0;" edge="1" parent="1" source="HRvxDB4I8MCEPSmdqRKO-130" target="HRvxDB4I8MCEPSmdqRKO-131">
          <mxGeometry relative="1" as="geometry" />
        </mxCell>
        <mxCell id="HRvxDB4I8MCEPSmdqRKO-128" value="否" style="edgeLabel;html=1;align=center;verticalAlign=middle;resizable=0;points=[];" vertex="1" connectable="0" parent="HRvxDB4I8MCEPSmdqRKO-127">
          <mxGeometry x="-0.3824" y="-3" relative="1" as="geometry">
            <mxPoint y="1" as="offset" />
          </mxGeometry>
        </mxCell>
        <mxCell id="HRvxDB4I8MCEPSmdqRKO-134" style="edgeStyle=orthogonalEdgeStyle;rounded=0;orthogonalLoop=1;jettySize=auto;html=1;exitX=1;exitY=0.5;exitDx=0;exitDy=0;" edge="1" parent="1" source="HRvxDB4I8MCEPSmdqRKO-130">
          <mxGeometry relative="1" as="geometry">
            <mxPoint x="-300" y="950" as="targetPoint" />
          </mxGeometry>
        </mxCell>
        <mxCell id="HRvxDB4I8MCEPSmdqRKO-135" value="是" style="edgeLabel;html=1;align=center;verticalAlign=middle;resizable=0;points=[];" vertex="1" connectable="0" parent="HRvxDB4I8MCEPSmdqRKO-134">
          <mxGeometry x="-0.6836" relative="1" as="geometry">
            <mxPoint as="offset" />
          </mxGeometry>
        </mxCell>
        <mxCell id="HRvxDB4I8MCEPSmdqRKO-130" value="family表&lt;br style=&quot;border-color: var(--border-color);&quot;&gt;有userId和familyId记录" style="rhombus;whiteSpace=wrap;html=1;" vertex="1" parent="1">
          <mxGeometry x="-470" y="532" width="150" height="68" as="geometry" />
        </mxCell>
        <mxCell id="HRvxDB4I8MCEPSmdqRKO-137" style="edgeStyle=orthogonalEdgeStyle;rounded=0;orthogonalLoop=1;jettySize=auto;html=1;exitX=0.5;exitY=1;exitDx=0;exitDy=0;entryX=1;entryY=0.5;entryDx=0;entryDy=0;" edge="1" parent="1" source="HRvxDB4I8MCEPSmdqRKO-131" target="HRvxDB4I8MCEPSmdqRKO-55">
          <mxGeometry relative="1" as="geometry" />
        </mxCell>
        <mxCell id="HRvxDB4I8MCEPSmdqRKO-131" value="&lt;div style=&quot;border-color: var(--border-color);&quot; class=&quot;old-record-id-NEFbd2yO6o0nXTxlkc0cnwMOnpg&quot;&gt;family表&lt;/div&gt;&lt;div style=&quot;border-color: var(--border-color);&quot; class=&quot;old-record-id-NEFbd2yO6o0nXTxlkc0cnwMOnpg&quot;&gt;添加此user_id&lt;/div&gt;" style="rounded=0;whiteSpace=wrap;html=1;" vertex="1" parent="1">
          <mxGeometry x="-455" y="640" width="120" height="60" as="geometry" />
        </mxCell>
      </root>
    </mxGraphModel>
  </diagram>
</mxfile>
